<svg id="Layer_1" data-name="Layer 1" xmlns="http://www.w3.org/2000/svg" width="288.82" height="57.56" viewBox="0 0 288.82 57.56">
  <title>Artboard 4</title>
  <g>
    <path d="M3.37,40.63a7,7,0,0,0,1.85-.24A17.1,17.1,0,0,0,7,39.79q2.65-3.49,5.38-6.85t5.52-6.71L22,21.44q2.05-2.42,4.16-4.72c-2.52.79-5,1.6-7.45,2.41a74,74,0,0,1-7.45,2.06,9.47,9.47,0,0,0-1.22.25,7.87,7.87,0,0,1-1.4.24,6.55,6.55,0,0,1-1.4,0,1.87,1.87,0,0,1-1.08-.42,1.45,1.45,0,0,1-.56-.94,1.55,1.55,0,0,1,.14-.94,1.7,1.7,0,0,1,.66-.7,1.63,1.63,0,0,1,1.09-.21,31.27,31.27,0,0,0,8.77-1.79,80.83,80.83,0,0,0,9-3.74q4.44-2.16,8.64-4.61T41.8,3.92A62.23,62.23,0,0,1,48.61.81,9.09,9.09,0,0,1,53.79.15,5.8,5.8,0,0,1,55.47,1.4,25.64,25.64,0,0,1,57.81,4c.77,1,1.46,1.88,2.06,2.79a4.38,4.38,0,0,1,.91,2,4.94,4.94,0,0,1-.94,2.79,13.64,13.64,0,0,1-2.34,2.63,23.09,23.09,0,0,1-2.94,2.16,20.58,20.58,0,0,1-2.73,1.44,4.49,4.49,0,0,1-2.24.42,1.33,1.33,0,0,1-1.08-.67,1.33,1.33,0,0,1,.17-1.26,3.89,3.89,0,0,1,1.61-1.36A9.77,9.77,0,0,0,51.8,14c.67-.46,1.36-1,2.06-1.57a22.14,22.14,0,0,0,1.92-1.79A6.19,6.19,0,0,0,57,9a19.73,19.73,0,0,0-5.52.49q-2.73.63-5.45,1.18l-4,1.12-3.89,1.12a9.64,9.64,0,0,1,1,2.56c.16.76,0,1.2-.46,1.29A7.83,7.83,0,0,0,36.69,18a22.24,22.24,0,0,0-2,1.82c-.63.65-1.22,1.31-1.78,2s-1.1,1.27-1.61,1.78c-1.49,1.59-2.94,3.17-4.33,4.76s-2.78,3.19-4.13,4.82L25.61,32q1.18-.48,3-1.26c1.22-.51,2.47-1,3.78-1.39a27.34,27.34,0,0,1,3.85-.95,9.06,9.06,0,0,1,3.28,0c.56.09,1.09.7,1.58,1.81a15.94,15.94,0,0,1,1.08,3.61,13.74,13.74,0,0,1,.24,3.46c-.06,1-.38,1.49-.94,1.4a31.1,31.1,0,0,0-6.12-.53,60.37,60.37,0,0,0-6.26.42q-3.13.39-6.32,1c-2.13.44-4.19.9-6.19,1.36-.84,1.08-1.65,2.16-2.42,3.26s-1.55,2.2-2.34,3.32l-1.4,1.89c-.51.69-1,1.42-1.5,2.16a17.13,17.13,0,0,0-1.26,2.28,6.13,6.13,0,0,0-.59,2.2V56c0-.05,0-.07,0-.07s0,0,0-.07q.21.84-.81.66a7.65,7.65,0,0,1-2.38-.94,14.51,14.51,0,0,1-2.55-1.85,3.34,3.34,0,0,1-1.26-2,3.94,3.94,0,0,1,.21-1.57A9,9,0,0,1,1,48.61c.3-.52.63-1,1-1.51s.66-.94.94-1.36l1.4-2H4.14a1.86,1.86,0,0,1-1.43-.28,1.73,1.73,0,0,1-.74-1,1.51,1.51,0,0,1,.18-1.12A1.59,1.59,0,0,1,3.37,40.63Zm35-24h-.07a.39.39,0,0,0,.28.07.12.12,0,0,1-.1,0A.16.16,0,0,0,38.4,16.65Z" style="fill: #222226"/>
    <path d="M41.48,36.51c-.32.09-.94-.22-1.85-.95A20.8,20.8,0,0,1,36.94,33a16.53,16.53,0,0,1-2.21-3.18,3.35,3.35,0,0,1-.45-2.73,9.88,9.88,0,0,1,3.14-3.32,58.54,58.54,0,0,1,6.33-4.16Q47.5,17.42,52,15.28t8.81-3.77A65.76,65.76,0,0,1,68.89,9,19.57,19.57,0,0,1,75,8.26a5.78,5.78,0,0,1,2,.66,7.31,7.31,0,0,1,1.79,1.36,9.49,9.49,0,0,1,1.36,1.82,11.47,11.47,0,0,1,.91,2,4.23,4.23,0,0,1,0,2.34,8.75,8.75,0,0,1-.94,2.21,10.78,10.78,0,0,1-1.5,1.95,20.77,20.77,0,0,1-1.72,1.61,57.11,57.11,0,0,1-7.51,6.09q-4,2.72-8,5.38-2.37,1.6-4.79,3.15T51.76,40l5.17-2.37A17.88,17.88,0,0,1,58.61,37c.93-.33,2-.67,3.11-1a30.21,30.21,0,0,1,3.47-.84,6.54,6.54,0,0,1,2.79,0,4,4,0,0,1,1.86,1.43,17.8,17.8,0,0,1,1.85,2.77A20,20,0,0,1,73,42.24a3.56,3.56,0,0,1,.28,2c-.24.51-.45.77-.63.77a.87.87,0,0,1-.6-.35l-.7-.8a1.09,1.09,0,0,0-.87-.46,14.84,14.84,0,0,0-5.28.77c-1.93.61-3.62,1.21-5.07,1.82a125.44,125.44,0,0,0-11.61,5.49q-5.65,3-11.33,6.05c-.42,0-.82-.3-1.22-1A11.6,11.6,0,0,1,35,54a14.24,14.24,0,0,1-.45-2.94,3.89,3.89,0,0,1,.35-2.16c1.26-1.08,2.56-2.09,3.91-3s2.71-1.9,4.06-2.83a12.54,12.54,0,0,1,1.36-4.51,36.72,36.72,0,0,1,2.69-4.44A47.14,47.14,0,0,1,50.19,30q1.71-1.92,3-3.53l2.1-2.59L52,26c-1.17.75-2.32,1.5-3.46,2.27s-2.26,1.54-3.36,2.31-2.08,1.5-3,2.2a5.82,5.82,0,0,1,.38,2.48A1.31,1.31,0,0,1,41.48,36.51ZM58.12,24.2q-2.31,2.65-4.51,5.45c-1.47,1.87-2.85,3.81-4.16,5.81-.46.7-1,1.5-1.57,2.41a16.49,16.49,0,0,0-1.43,2.76l6.29-4.05c2.1-1.35,4.19-2.73,6.29-4.13q3.49-2.24,6.89-4.68a81.65,81.65,0,0,0,6.54-5.25c.42-.37,1-.86,1.75-1.47a27.54,27.54,0,0,0,2.13-1.92A8.34,8.34,0,0,0,77.91,17,2.29,2.29,0,0,0,78.05,15c-.28-.56-1-.74-2.27-.56a21.59,21.59,0,0,0-4.3,1.22c-1.63.63-3.35,1.36-5.14,2.17S63,19.38,61.69,20.07c-.65.66-1.27,1.33-1.85,2S58.68,23.5,58.12,24.2Z" style="fill: #222226"/>
    <path d="M71.06,34.76a7.42,7.42,0,0,0,4.55,0q2.44-3.49,5.1-7.2t5.17-6.86l-4.33,2c-.42.24-.89.52-1.4.84s-1,.67-1.54,1-1,.66-1.54.94a5.12,5.12,0,0,1-1.46.56c-.38.42-.74.38-1.09-.11a5.87,5.87,0,0,1-.84-2,10.62,10.62,0,0,1-.31-2.59,2.84,2.84,0,0,1,.56-1.95,16.24,16.24,0,0,1,4.16-2.31l4.44-1.75c2.52-1,5-2,7.48-3s5-1.86,7.62-2.69a21.45,21.45,0,0,1,2.66-.74c1-.21,1.92-.37,2.83-.49a21,21,0,0,1,2.48-.17,3.35,3.35,0,0,1,1.61.28,6.36,6.36,0,0,1,1.44,1.57,25,25,0,0,1,1.6,2.59,12.34,12.34,0,0,1,1,2.48c.21.75.15,1.14-.17,1.19a1.91,1.91,0,0,1-.74-.21,6.24,6.24,0,0,1-.87-.49,7.09,7.09,0,0,1-.66-.49c-.17-.14-.2-.19-.11-.14a2.9,2.9,0,0,0-1.75-.38,15.63,15.63,0,0,0-2.3.24,21.17,21.17,0,0,0-2.28.53c-.72.2-1.29.36-1.71.45-1.45.37-2.87.76-4.27,1.15s-2.79.83-4.19,1.3a13.28,13.28,0,0,1,1,1.29A13,13,0,0,1,94,20.88a2.7,2.7,0,0,1,.35,1,.52.52,0,0,1-.24.56,9.94,9.94,0,0,0-2.31,1.4c-.84.65-1.71,1.39-2.62,2.2s-1.85,1.68-2.8,2.59-1.85,1.78-2.69,2.62c1.49-.79,2.94-1.59,4.37-2.41s2.75-1.53,4-2.13a22.44,22.44,0,0,1,3.22-1.33,2.76,2.76,0,0,1,2.13,0,2.28,2.28,0,0,1,1,1.78,10.52,10.52,0,0,1,0,2.63A6.44,6.44,0,0,1,97.77,32c-.32.61-.65.8-1,.56A37.17,37.17,0,0,0,91,34.34q-2.82,1.13-5.48,2.31t-5.25,2.27a26.63,26.63,0,0,1-5,1.57,2,2,0,0,0-.28.35l-.28.42a21,21,0,0,1-1.26,1.82c-.56.75-1.1,1.53-1.61,2.34a18.68,18.68,0,0,0-1.29,2.45,3.31,3.31,0,0,0-.32,2.06c.23.28.85.24,1.85-.14a23.25,23.25,0,0,0,3.22-1.5c1.14-.63,2.23-1.25,3.25-1.85s1.7-1,2-1.26q4.41-2.73,8.5-5.63t8.14-6a2,2,0,0,1,1.82,0,8.74,8.74,0,0,1,2.24,1.26A6.23,6.23,0,0,1,103,36.54c.37.63.35,1.11-.07,1.44a4.91,4.91,0,0,1-1.16,1.4,15.81,15.81,0,0,1-1.78,1.32L98,41.93c-.63.39-1.16.73-1.58,1q-2,1.47-4.44,3.15t-4.93,3.32c-1.67,1.1-3.36,2.12-5.07,3.08S78.68,54.27,77.14,55a4.39,4.39,0,0,1-2.3.14,12.82,12.82,0,0,1-3.15-.87,10.93,10.93,0,0,1-2.94-1.82,4.31,4.31,0,0,1-1.54-2.7,4.4,4.4,0,0,1,.21-2.27,19,19,0,0,1,1.12-2.66,26.17,26.17,0,0,1,1.61-2.69c.61-.88,1.17-1.68,1.68-2.38a6.44,6.44,0,0,1-1-1.39,7.11,7.11,0,0,1-.55-1.51,2.35,2.35,0,0,1,0-1.29A1.15,1.15,0,0,1,71.06,34.76Z" style="fill: #222226"/>
    <path d="M105.18,34.76a7.42,7.42,0,0,0,4.55,0q2.44-3.49,5.1-7.2T120,20.7l-4.34,2c-.42.24-.88.52-1.4.84l-1.53,1c-.52.34-1,.66-1.54.94a5.29,5.29,0,0,1-1.47.56c-.37.42-.73.38-1.08-.11a5.87,5.87,0,0,1-.84-2,10.62,10.62,0,0,1-.32-2.59,2.89,2.89,0,0,1,.56-1.95,16.24,16.24,0,0,1,4.16-2.31l4.44-1.75c2.52-1,5-2,7.48-3s5-1.86,7.63-2.69a21.27,21.27,0,0,1,2.65-.74c1-.21,1.93-.37,2.84-.49a20.81,20.81,0,0,1,2.48-.17,3.41,3.41,0,0,1,1.61.28,6.18,6.18,0,0,1,1.43,1.57,25,25,0,0,1,1.61,2.59,12.34,12.34,0,0,1,1.05,2.48c.21.75.15,1.14-.18,1.19a1.87,1.87,0,0,1-.73-.21,5.81,5.81,0,0,1-.88-.49,7.09,7.09,0,0,1-.66-.49c-.16-.14-.2-.19-.11-.14a2.87,2.87,0,0,0-1.74-.38,15.62,15.62,0,0,0-2.31.24,21.55,21.55,0,0,0-2.27.53c-.73.2-1.3.36-1.72.45-1.44.37-2.86.76-4.26,1.15s-2.8.83-4.2,1.3a13.4,13.4,0,0,1,1,1.29,13,13,0,0,1,.77,1.26,2.66,2.66,0,0,1,.34,1,.49.49,0,0,1-.24.56,9.94,9.94,0,0,0-2.31,1.4c-.84.65-1.71,1.39-2.62,2.2s-1.84,1.68-2.8,2.59-1.85,1.78-2.69,2.62q2.23-1.19,4.37-2.41c1.42-.81,2.75-1.53,4-2.13a21.92,21.92,0,0,1,3.21-1.33,2.78,2.78,0,0,1,2.14,0,2.27,2.27,0,0,1,1,1.78,9.65,9.65,0,0,1,0,2.63A6.67,6.67,0,0,1,131.9,32c-.33.61-.66.8-1,.56a37.17,37.17,0,0,0-5.77,1.75q-2.84,1.13-5.49,2.31t-5.25,2.27a26.63,26.63,0,0,1-5,1.57,2.68,2.68,0,0,0-.28.35l-.28.42a21,21,0,0,1-1.26,1.82c-.56.75-1.09,1.53-1.61,2.34a18.68,18.68,0,0,0-1.29,2.45,3.31,3.31,0,0,0-.32,2.06c.24.28.86.24,1.86-.14a23.71,23.71,0,0,0,3.21-1.5c1.15-.63,2.23-1.25,3.26-1.85s1.7-1,2-1.26q4.41-2.73,8.5-5.63t8.15-6a2,2,0,0,1,1.81,0,8.57,8.57,0,0,1,2.24,1.26,6.08,6.08,0,0,1,1.61,1.74c.37.63.35,1.11-.07,1.44a4.86,4.86,0,0,1-1.15,1.4,16,16,0,0,1-1.79,1.32l-1.92,1.23c-.63.39-1.15.73-1.57,1-1.36,1-2.83,2-4.44,3.15s-3.25,2.23-4.93,3.32-3.37,2.12-5.07,3.08-3.32,1.78-4.86,2.48a4.44,4.44,0,0,1-2.31.14,12.94,12.94,0,0,1-3.15-.87,10.73,10.73,0,0,1-2.93-1.82,4.27,4.27,0,0,1-1.54-2.7,4.4,4.4,0,0,1,.21-2.27,17.84,17.84,0,0,1,1.12-2.66,26,26,0,0,1,1.6-2.69c.61-.88,1.17-1.68,1.68-2.38a6.41,6.41,0,0,1-.94-1.39,7.17,7.17,0,0,1-.56-1.51,2.35,2.35,0,0,1,0-1.29A1.17,1.17,0,0,1,105.18,34.76Z" style="fill: #222226"/>
    <path d="M168,37.35c-.1.18-.19.16-.28-.07a5.78,5.78,0,0,0-1.78.14,19,19,0,0,0-1.89.52c-.63.21-1.24.43-1.82.67l-1.57.63q-2.94,1.11-5.84,2.34c-1.94.81-3.88,1.64-5.84,2.48-1.31.56-2.65,1.14-4,1.75A15.42,15.42,0,0,1,140.78,47a1.49,1.49,0,0,1-.84-.14,19.37,19.37,0,0,0-1,1.92,4.38,4.38,0,0,0-.42,1.78,1.47,1.47,0,0,1-.18,1.33,1.54,1.54,0,0,1-1,.6,1.87,1.87,0,0,1-1.22-.21,1.34,1.34,0,0,1-.67-1.16,5.3,5.3,0,0,1,.74-3.07,23.4,23.4,0,0,1,1.92-3,10.77,10.77,0,0,1-1-1.64,7.82,7.82,0,0,1-.59-1.61,2.93,2.93,0,0,1-.07-1.26.71.71,0,0,1,.66-.6,18.19,18.19,0,0,0,5.31-1c1.36-1.78,2.72-3.52,4.09-5.25s2.79-3.43,4.24-5.1q-2.88,1.32-5.74,2.58a62.82,62.82,0,0,1-5.87,2.24c-.61.19-1.38.43-2.31.74a2.7,2.7,0,0,1-2.38-.18,1.48,1.48,0,0,1-.63-1,12.41,12.41,0,0,1-.31-1.86,14.87,14.87,0,0,1,0-2.23,18.32,18.32,0,0,1,.25-2.17,8.79,8.79,0,0,1,.45-1.65c.19-.44.42-.66.7-.66a9.83,9.83,0,0,0,2.8-.28,22.06,22.06,0,0,0,2.94-.91c1-.37,1.92-.77,2.83-1.19s1.78-.79,2.62-1.12q3.84-1.53,7.59-3.18t7.52-3.39q3.84-1.68,7.69-3.43a54.1,54.1,0,0,1,7.83-2.86c.42-.1.87-.19,1.36-.28s1-.17,1.47-.21a4.62,4.62,0,0,1,1.44.07,2.61,2.61,0,0,1,1.25.63,3.16,3.16,0,0,1,1,2.1,9.65,9.65,0,0,1-.17,2.93,19.92,19.92,0,0,1-1,3.32,32.77,32.77,0,0,1-1.43,3.19,18.21,18.21,0,0,1-1.58,2.51,4.53,4.53,0,0,1-1.36,1.33l-.95.49a5.76,5.76,0,0,1-1.11.46,4.4,4.4,0,0,1-1.16.17,1.51,1.51,0,0,1-1-.35A1.36,1.36,0,0,1,173,22.8a1.91,1.91,0,0,1,1.19-1.12,10.67,10.67,0,0,0,5.6-4.47,5.49,5.49,0,0,0-2.45.17,24.86,24.86,0,0,0-3,1c-1,.42-2,.85-2.9,1.29a23.13,23.13,0,0,1-2.13.94Q166,22,162.7,23.36l-6.54,2.8q-1.68,1.82-3.25,3.64t-3.11,3.7c-1.12,1.31-2.15,2.61-3.08,3.92,1.68-.7,3.33-1.44,5-2.21s3.19-1.47,4.68-2.13c.56-.23,1.29-.57,2.2-1A20,20,0,0,1,161.41,31a15.25,15.25,0,0,1,2.83-.6,3.11,3.11,0,0,1,2.27.56,3.88,3.88,0,0,1,1.15,1.58,6.94,6.94,0,0,1,.49,1.89,9.74,9.74,0,0,1,0,1.78,3.83,3.83,0,0,1-.21,1.12Zm12.38-19.93h-.07S180.36,17.46,180.36,17.42Z" style="fill: #222226"/>
    <path d="M200.57,12.17a5.12,5.12,0,0,1-1.09,3.57,31.25,31.25,0,0,1-3.77,4.58c-1.61,1.66-3.47,3.38-5.56,5.17s-4.25,3.59-6.44,5.39-4.3,3.54-6.33,5.24-3.8,3.27-5.31,4.69a24.5,24.5,0,0,0-3.39,3.74c-.75,1.07-.91,1.87-.49,2.38a1.47,1.47,0,0,0,1.19.42,9.51,9.51,0,0,0,1.78-.18,12.07,12.07,0,0,0,1.75-.45c.53-.19.9-.3,1.08-.35A27.82,27.82,0,0,0,177.77,45c1.21-.53,2.42-1.13,3.64-1.78.88-.51,2-1.23,3.32-2.17a32.06,32.06,0,0,0,3.81-3.14,23.06,23.06,0,0,0,3.14-3.71,6.35,6.35,0,0,0,1.26-3.85,2,2,0,0,1,.21-.9,1.31,1.31,0,0,1,.56-.6,1.1,1.1,0,0,1,.84,0,3.05,3.05,0,0,1,1.12.88,11.09,11.09,0,0,1,.91,1.36,15.22,15.22,0,0,1,1.71,4.54,5,5,0,0,1,0,2.14,8.15,8.15,0,0,1-2.1,3.63,27.87,27.87,0,0,1-3.95,3.5A47.37,47.37,0,0,1,187.49,48c-1.68,1-3.22,1.78-4.62,2.48-.84.42-2,.94-3.42,1.54a28.65,28.65,0,0,1-4.51,1.47,18.67,18.67,0,0,1-4.55.53,5.28,5.28,0,0,1-3.53-1.23,7.53,7.53,0,0,1-1.5-1.89,8.69,8.69,0,0,1-.88-2.16,7.43,7.43,0,0,1-.21-2.17,3.46,3.46,0,0,1,.63-1.82q1.33-1.89,3.15-4.23t3.81-4.76c1.33-1.6,2.64-3.17,3.95-4.68s2.45-2.88,3.43-4.09c.56-.65,1.3-1.48,2.23-2.48s1.86-2.07,2.77-3.19a23.93,23.93,0,0,0,2.34-3.39,6,6,0,0,0,.91-3.18c-.05-.37.24-.74.87-1.12a11.65,11.65,0,0,1,2.35-1,23.31,23.31,0,0,1,3.07-.77,28,28,0,0,1,3.15-.42,10.68,10.68,0,0,1,2.52.07C200.15,11.63,200.52,11.85,200.57,12.17Z" style="fill: #222226"/>
    <path d="M245.88,15.25c.32-.14.72-.33,1.19-.56s.94-.45,1.43-.66A12.37,12.37,0,0,1,250,13.5a2.52,2.52,0,0,1,1.29-.07,1.41,1.41,0,0,1,1,.53,1.17,1.17,0,0,1,.17.84,2.4,2.4,0,0,1-.35.9,2.92,2.92,0,0,1-.63.74,3.26,3.26,0,0,1-1.15.7c-.49.18-1,.36-1.58.52s-1.09.32-1.6.46-1,.28-1.33.42l-4.44,1.68c-1.47.55-3,1.14-4.44,1.74l-3.29,1.19a13.89,13.89,0,0,1-1.12,3.5,36.49,36.49,0,0,1-1.82,3.46c-.65,1.1-1.31,2.11-2,3s-1.22,1.68-1.64,2.24a84.31,84.31,0,0,1-11.61,12.38l-2.48,2.16a26,26,0,0,1-3.08,2.31,17.87,17.87,0,0,1-3.32,1.68,5.77,5.77,0,0,1-3.29.28,4.57,4.57,0,0,1-1.71-.91c-.77-.56-1.54-1.16-2.31-1.82a26.75,26.75,0,0,1-2.1-2,3.66,3.66,0,0,1-1-1.39,7,7,0,0,1,.63-4.23,33.34,33.34,0,0,1,2.94-5.46A63.83,63.83,0,0,1,204,32.52c1.65-2,3.29-3.87,4.93-5.59a2.92,2.92,0,0,1-.32-2.87,10.31,10.31,0,0,1,2.06-3.22,24,24,0,0,1,3.54-3.11,30.54,30.54,0,0,1,4.19-2.58,20.82,20.82,0,0,1,4.09-1.61,6.81,6.81,0,0,1,3.15-.25,7.26,7.26,0,0,1,1.64.91c.68.47,1.39,1,2.14,1.64s1.44,1.27,2.09,1.93,1.17,1.19,1.54,1.61q3.57-1.05,7-2.1A59.39,59.39,0,0,0,245.88,15.25ZM205.53,34q-.84,1-2.1,2.73a32.48,32.48,0,0,0-2.31,3.53,20.62,20.62,0,0,0-1.64,3.67,5.12,5.12,0,0,0-.1,3.29,36.77,36.77,0,0,0,9.54-5.42,72.9,72.9,0,0,0,8.22-7.59c.28-.32.67-.78,1.19-1.36l1.71-2c.63-.72,1.27-1.52,1.92-2.38s1.26-1.73,1.82-2.62L219.27,27c-1.42.35-2.65.67-3.67.95a19.34,19.34,0,0,1-2.66.56,4.63,4.63,0,0,1-2.66-.35c-1,1.07-1.88,2.13-2.72,3.18S206,33.25,205.53,34ZM219,22.8h-.21l.07-.07a6.18,6.18,0,0,0-2.87.77,15.56,15.56,0,0,0-2.87,2,15.37,15.37,0,0,0,2.69-.42,25.88,25.88,0,0,0,2.8-.84c.91-.32,1.81-.66,2.69-1l2.38-1a7,7,0,0,0,1.12-.38A11.28,11.28,0,0,1,226,21.4a7.61,7.61,0,0,0,.35-2.58,3,3,0,0,0-.91-2,3.91,3.91,0,0,0-3.36-.42,16,16,0,0,0-4.37,1.75,19.94,19.94,0,0,0-4,3,6.41,6.41,0,0,0-2.07,3.25,37.5,37.5,0,0,1,3.43-3,8.65,8.65,0,0,1,2.45-1.43,5.24,5.24,0,0,1,2-.21,1.51,1.51,0,0,1,1.15.69,1.71,1.71,0,0,1,.21,1.16,1.55,1.55,0,0,1-.6,1A1.61,1.61,0,0,1,219,22.8Zm-.21,0-.07-.07C218.68,22.78,218.7,22.8,218.75,22.8Z" style="fill: #222226"/>
    <path d="M250.07,19.17c-1.35,1.49-2.69,3-4,4.58s-2.62,3.13-3.88,4.72-2.48,3.26-3.67,4.89-2.32,3.34-3.39,5.11c-.19.28-.43.64-.74,1.08s-.6.91-.9,1.4a11.86,11.86,0,0,0-.81,1.54,8.15,8.15,0,0,0-.49,1.5,52,52,0,0,0,8.81-6.5q4.07-3.7,8-7.69c1.4-1.36,2.78-2.73,4.13-4.13s2.68-2.82,4-4.27c.79-1.53,1.63-3,2.51-4.54a40.4,40.4,0,0,1,2.94-4.27,10.26,10.26,0,0,1,1.4-1.4,2.67,2.67,0,0,1,1.68-.7q.21,0,.84.84c.42.56.87,1.2,1.36,1.93s.94,1.41,1.36,2.06.68,1.07.77,1.26a2.24,2.24,0,0,1,.11,1.78,7.82,7.82,0,0,1-.88,1.82A17.94,17.94,0,0,1,268,21.86c-.44.53-.8,1-1.08,1.29q-3.57,4.62-7.56,9t-8.32,8.32q-.35.91-.63,1.86a6.33,6.33,0,0,0-.28,1.71,6.62,6.62,0,0,0,1.86-.77A14.67,14.67,0,0,0,253.81,42c.59-.46,1.15-.93,1.68-1.4l1.37-1.18q2.86-2.25,5.49-4.69c1.74-1.63,3.46-3.31,5.14-5q3.76-3.84,7.09-7.79c2.22-2.64,4.37-5.37,6.47-8.22a10.44,10.44,0,0,1-1.33.49l-.91.28a4.12,4.12,0,0,0-.77.7q-.27.35-.21,0a1.18,1.18,0,0,1-1,.87,1.67,1.67,0,0,1-1.19-.38,1.88,1.88,0,0,1-.66-1.19,1.71,1.71,0,0,1,.63-1.54,10.74,10.74,0,0,1,1.71-1.33,11.85,11.85,0,0,1,2.31-1.15A7.5,7.5,0,0,1,282,9.9a2.8,2.8,0,0,1,2,.73c.19.19.56.61,1.12,1.26s1.12,1.37,1.68,2.14a26.17,26.17,0,0,1,1.43,2.2,2.65,2.65,0,0,1,.52,1.4,5,5,0,0,1-.59,1.57,13.17,13.17,0,0,1-1,1.54c-.38.49-.75.94-1.12,1.36s-.7.77-1,1A158.7,158.7,0,0,1,274,35.21Q268,41,261.89,46.44c-.51.46-1.11,1-1.78,1.64a23.63,23.63,0,0,1-2.17,1.78,13.47,13.47,0,0,1-2.38,1.4,4.33,4.33,0,0,1-2.41.42,2.62,2.62,0,0,1-1.68-1,12,12,0,0,1-1.57-2.16,24.44,24.44,0,0,1-1.33-2.66,12.54,12.54,0,0,1-.8-2.45c-.94.89-1.9,1.73-2.91,2.52s-2,1.58-3,2.38c-.56.46-1.22,1-2,1.6a18.1,18.1,0,0,1-2.38,1.61,7.29,7.29,0,0,1-2.52.91,3.37,3.37,0,0,1-2.41-.49,8.93,8.93,0,0,1-.84-1.26c-.42-.7-.84-1.44-1.26-2.23s-.79-1.55-1.12-2.28a5,5,0,0,1-.48-1.36,5.28,5.28,0,0,1,.38-1.92,15.08,15.08,0,0,1,.94-2c.38-.65.75-1.26,1.12-1.81s.68-1,.91-1.4q4.41-6.57,9.48-12.76T252,12.87c.42-.46.86-1,1.33-1.54A3.28,3.28,0,0,1,255,10.22a2.49,2.49,0,0,1,1.89.17,3,3,0,0,1,1.22,1.12,1.74,1.74,0,0,1,.21,1.36,1.28,1.28,0,0,1-1.08.91,6.16,6.16,0,0,0-1.86.88c-.67.44-1.36.93-2.06,1.46a22.88,22.88,0,0,0-1.92,1.65C250.85,18.33,250.4,18.79,250.07,19.17Z" style="fill: #222226"/>
  </g>
</svg>
